<svg xmlns="http://www.w3.org/2000/svg" xmlns:xlink="http://www.w3.org/1999/xlink" version="1.1" x="0px" y="0px" viewBox="0 0 100 100" enable-background="new 0 0 100 100" xml:space="preserve"><g><path fill="#000000" d="M43.786,82.453c-3.636,0-6.042-1.879-6.079-1.909c-0.322-0.259-0.374-0.731-0.115-1.054   c0.261-0.323,0.729-0.374,1.053-0.117c0.194,0.154,4.792,3.687,10.877-0.256c0.349-0.225,0.812-0.125,1.037,0.222   c0.226,0.348,0.127,0.812-0.221,1.037C47.927,81.938,45.688,82.453,43.786,82.453z"></path></g><g><path fill="#000000" d="M63.117,45.683c-0.167,0-0.334-0.055-0.474-0.168c-0.025-0.021-2.635-2.104-5.524-1.648   c-3.576,0.554-6.55-0.634-6.675-0.685c-0.383-0.156-0.566-0.593-0.411-0.976c0.155-0.384,0.591-0.568,0.977-0.413   c0.025,0.01,2.731,1.085,5.877,0.592c3.582-0.558,6.581,1.866,6.707,1.969c0.319,0.262,0.366,0.733,0.104,1.054   C63.551,45.589,63.335,45.683,63.117,45.683z"></path></g><g><path fill="#000000" d="M26.902,45.843c-0.205,0-0.41-0.084-0.559-0.25c-0.276-0.309-0.25-0.782,0.058-1.058   c0.16-0.144,3.96-3.505,7.663-2.506c3.162,0.853,6.486,0.462,6.521,0.458c0.418-0.05,0.784,0.244,0.835,0.653   c0.051,0.411-0.241,0.785-0.652,0.836c-0.147,0.018-3.643,0.433-7.094-0.499c-2.918-0.787-6.238,2.145-6.271,2.175   C27.26,45.78,27.081,45.843,26.902,45.843z"></path></g><g><path fill="#000000" d="M48.094,53.714c-0.346,0-0.657-0.241-0.732-0.593c-1.535-7.165,1.8-9.086,1.942-9.165   c0.364-0.198,0.82-0.066,1.018,0.297c0.197,0.36,0.069,0.811-0.286,1.013c-0.066,0.042-2.476,1.618-1.207,7.541   c0.087,0.405-0.171,0.804-0.576,0.891C48.199,53.709,48.146,53.714,48.094,53.714z"></path></g><g><path fill="#000000" d="M42.271,53.767c-0.084,0-0.17-0.014-0.254-0.044c-0.39-0.14-0.592-0.57-0.452-0.959   c1.121-3.121-0.104-7.196-0.117-7.237c-0.121-0.396,0.101-0.815,0.496-0.937c0.398-0.123,0.815,0.1,0.938,0.495   c0.058,0.186,1.388,4.588,0.096,8.186C42.867,53.577,42.579,53.767,42.271,53.767z"></path></g><g><path fill="#000000" d="M44.292,66.637c-1.363,0-2.391-1.124-2.504-1.252c-1.22-1.063-2.105-0.959-2.143-0.953   c-0.062,0.008-0.146,0.013-0.21,0.006c-0.122-0.014-1.214-0.16-1.85-1.059c-0.283-0.4-0.57-1.099-0.326-2.155   c0.518-2.244,1.648-3.481,1.696-3.533c0.283-0.304,0.757-0.321,1.061-0.039c0.303,0.282,0.32,0.756,0.039,1.06   c-0.007,0.007-0.912,1.019-1.335,2.849c-0.094,0.41-0.065,0.728,0.086,0.945c0.183,0.264,0.542,0.388,0.732,0.429   c0.447-0.041,1.737,0.012,3.308,1.391c0.252,0.273,0.861,0.811,1.445,0.811c0.603,0,1.351-0.621,1.564-0.838   c0.082-0.081,1.84-1.796,4.448-0.614c0.089-0.003,0.243-0.024,0.338-0.124c0.174-0.182,0.217-0.647,0.116-1.246   c-0.375-2.229-1.359-3.29-1.369-3.3c-0.283-0.299-0.274-0.773,0.022-1.058c0.296-0.287,0.766-0.28,1.054,0.014   c0.054,0.055,1.313,1.37,1.771,4.096c0.193,1.145,0.014,2.005-0.535,2.557c-0.68,0.686-1.602,0.558-1.707,0.542   c-0.072-0.012-0.143-0.034-0.209-0.066c-1.7-0.829-2.822,0.215-2.868,0.261C46.801,65.479,45.634,66.637,44.292,66.637z"></path></g><g><path fill="#000000" d="M56.151,76.29c-0.083,0-0.168-0.014-0.251-0.043c-0.391-0.138-0.595-0.567-0.456-0.958   c1.67-4.702-3.003-9.379-3.05-9.426c-0.295-0.291-0.299-0.766-0.008-1.061c0.291-0.295,0.766-0.298,1.061-0.008   c0.222,0.218,5.396,5.404,3.411,10.996C56.749,76.098,56.46,76.29,56.151,76.29z"></path></g><g><path fill="#000000" d="M33.051,78.348c-0.246,0-0.487-0.121-0.631-0.343c-1.077-1.666-1.233-4.43-0.408-7.213   c0.77-2.595,3.144-7.162,3.244-7.355c0.191-0.366,0.645-0.511,1.012-0.318c0.367,0.191,0.51,0.645,0.318,1.012   c-0.024,0.046-2.408,4.632-3.137,7.089c-0.693,2.339-0.604,4.684,0.23,5.972c0.225,0.348,0.125,0.812-0.223,1.037   C33.331,78.31,33.19,78.348,33.051,78.348z"></path></g><path fill="#000000" d="M53.958,75.617c-1.604-1.709-5.562-2.05-7.894-1.202c-1.862,0.675-3.558-0.075-3.572-0.082  c-0.038-0.018-0.078-0.033-0.119-0.044c-3.373-0.91-7.049,0.77-7.204,0.842c-0.375,0.175-0.538,0.621-0.363,0.997  s0.62,0.535,0.996,0.364c0.017-0.008,0.898-0.409,2.134-0.693c0.608,0.492,2.927,2.172,6.223,2.172c3.202,0,5.608-1.75,6.343-2.352  c1.012,0.185,1.9,0.532,2.362,1.025c0.147,0.157,0.347,0.237,0.547,0.237c0.185,0,0.368-0.067,0.514-0.203  C54.227,76.394,54.241,75.919,53.958,75.617z M40.288,75.52c0.546,0.005,1.101,0.064,1.642,0.204  c0.397,0.167,2.398,0.916,4.646,0.101c0.381-0.139,0.814-0.223,1.261-0.281c-0.961,0.483-2.222,0.927-3.678,0.927  C42.569,76.471,41.231,75.997,40.288,75.52z"></path><g><path fill="#000000" d="M51.259,36.972c-0.008,0-0.016,0-0.023,0l-10.264-0.319c-0.414-0.013-0.739-0.359-0.727-0.773   c0.013-0.413,0.374-0.756,0.773-0.726l10.264,0.319c0.414,0.013,0.739,0.359,0.727,0.773   C51.996,36.651,51.663,36.972,51.259,36.972z"></path></g><g><path fill="#000000" d="M40.357,34.111c-0.251,0-0.496-0.126-0.639-0.355c-0.218-0.352-0.109-0.814,0.242-1.033   c0.229-0.142,5.655-3.443,12.261-1.956c0.403,0.091,0.657,0.492,0.566,0.896c-0.091,0.404-0.493,0.654-0.896,0.567   c-6.01-1.357-11.09,1.735-11.14,1.767C40.629,34.075,40.492,34.111,40.357,34.111z"></path></g><g><path fill="#000000" d="M41.475,29.218c-0.268,0-0.527-0.144-0.662-0.396c-0.195-0.365-0.059-0.819,0.307-1.015   c4.692-2.511,10.49-0.769,10.733-0.694c0.396,0.122,0.617,0.542,0.496,0.937c-0.122,0.396-0.543,0.619-0.938,0.497   c-0.053-0.017-5.453-1.63-9.583,0.583C41.715,29.19,41.594,29.218,41.475,29.218z"></path></g><g><path fill="none" d="M50.408,7.218"></path></g><path fill="#000000" d="M82.119,30.44c-0.515-1.043-1.036-2.11-1.288-3.176c0-0.004-0.003-0.009-0.003-0.013  c-0.103-0.438-0.165-0.876-0.154-1.312c0.06-2.527-1.432-4.723-2.565-6.201c-0.047-0.107-0.246-0.503-0.744-0.96  c-0.147-0.193-0.271-0.364-0.336-0.48c-0.069-0.125-0.13-0.244-0.19-0.364c-0.495-0.969-1.006-1.97-4.986-5.422  c-1.496-1.298-2.983-2.079-4.322-2.548c-0.663-0.441-3.871-2.506-6.09-2.655c-0.511-0.172-2.769-0.901-5.003-1.158  c-0.731-0.084-1.398-0.227-2.045-0.365c-1.501-0.323-2.922-0.627-4.833-0.178c-1.194,0.278-2.623,0.073-4.277-0.167  c-1.587-0.229-3.382-0.492-5.369-0.37c-2.329,0.14-3.213,0.591-4.33,1.163c-0.89,0.455-1.996,1.021-4.318,1.654  c-1.189,0.324-2.213,0.799-3.109,1.348c-0.363,0.173-0.591,0.305-0.629,0.327c-0.113,0.068-0.191,0.165-0.253,0.271  c-1.976,1.462-3.2,3.256-3.979,4.412c-0.248,0.368-0.462,0.687-0.601,0.837c-0.126,0.137-0.235,0.284-0.357,0.424  c-0.104,0.078-0.179,0.139-0.191,0.15c-0.097,0.087-0.156,0.197-0.196,0.312c-2.761,3.38-4.2,7.435-4.048,11.568  c-0.409,0.964-2.384,5.795-2.432,9.364c-0.015,0.245-0.016,0.475-0.006,0.678c0.002,0.048,0.022,0.09,0.033,0.135  c0.009,0.103,0.011,0.21,0.024,0.31c0.413,3.202,2.948,7.99,4.462,10.851c0.308,0.581,0.571,1.079,0.763,1.461  c0.072,0.143,0.185,0.25,0.316,0.32c-0.008,9.31,1.687,17.171,1.704,17.247c0.055,0.262,1.372,6.49,4.368,12.23  c2.97,5.691,10.233,14.159,18.072,14.159c7.586,0,17.124-12.036,19.558-16.185c1.156-1.969,2.735-4.674,4.27-9.143  c0.37,0.234,0.856,0.401,1.493,0.401c0.119,0,0.244-0.006,0.374-0.018c2.224-0.208,5.151-5.756,5.729-10.415  c0.009-0.022,0.023-0.041,0.03-0.064c0.12-0.438,0.267-1.092,0.438-1.854c0.391-1.744,0.906-4.046,1.502-5.498  c0.004-0.005,0.01-0.006,0.015-0.011c0.08-0.092,0.206-0.369,0.34-0.766c0.396-0.828,0.51-1.622,0.616-2.459  c0.16-1.26,0.326-2.562,1.567-4.336c0.76-1.086,1.249-2.073,1.575-3.008c0.07-0.078,0.13-0.166,0.163-0.272  c0.331-1.071,0.462-2.035,0.473-2.92c0.033-0.366,0.062-0.732,0.087-1.102c0.031-0.438,0.062-0.887,0.107-1.353  C83.702,33.646,82.897,32.017,82.119,30.44z M70.76,67.853c-0.963,0.088-1.17-0.369-1.204-0.471  c-0.001-0.003-0.003-0.005-0.004-0.007c0.856-2.754,1.679-6.12,2.39-10.271c0.42,1.054,0.747,2.349,0.293,3.07  c-0.22,0.351-0.115,0.814,0.236,1.034c0.137,0.087,0.293,0.123,0.444,0.114c0.233-0.014,0.456-0.137,0.59-0.349  c1.321-2.103-0.72-5.654-0.957-6.052c-0.057-0.096-0.135-0.171-0.222-0.231c0.068-0.452,0.138-0.888,0.203-1.357  c0.001-0.006-0.002-0.011-0.001-0.017c0-0.005,0.003-0.008,0.004-0.013c0.137-1.393,0.601-3.899,1.266-4.698  c0.187-0.225,0.385-0.272,0.629-0.149c0.414,0.209,0.754,0.848,0.566,1.619c-0.273,1.122-0.176,1.808-0.041,2.757  c0.131,0.927,0.312,2.198,0.285,4.645C75.185,62.615,71.739,67.761,70.76,67.853z M79.908,43.081  c-0.211,0.302-0.389,0.591-0.552,0.874c-0.291-1.35-0.854-2.684-1.865-3.815c-0.277-0.31-0.75-0.336-1.06-0.06  c-0.309,0.276-0.335,0.75-0.06,1.059c2.545,2.848,1.711,7.35,1.24,8.929c-0.024,0.05-0.039,0.102-0.066,0.152  c-0.386,0.728-0.734,1.766-1.043,2.878c-0.022-0.168-0.045-0.328-0.065-0.476c-0.128-0.899-0.191-1.35,0.013-2.192  c0.375-1.54-0.395-2.833-1.349-3.313c-0.863-0.435-1.826-0.227-2.456,0.528c-1.158,1.39-1.552,4.97-1.602,5.482c0,0,0,0,0,0  c-2.04,14.792-5.37,20.466-7.573,24.221c-2.667,4.545-11.709,15.443-18.265,15.443c-7.121,0-14.049-8.19-16.742-13.353  c-2.897-5.549-4.217-11.779-4.231-11.849c-0.019-0.086-1.895-8.785-1.649-18.654c0.001-0.05-0.017-0.094-0.025-0.142  c0.007-0.04,0.025-0.076,0.025-0.118c0.002-0.14,0.193-14.052,1.842-19.202c1.698-5.303,8.211-12.771,13.405-11.829  c2.323,0.422,3.52,0.818,4.576,1.167c1.591,0.526,2.741,0.906,6.393,0.972c2.581,0.051,4.665-0.589,6.525-1.149  c2.543-0.765,4.382-1.319,6.211,0.136c3.152,2.503,10.841,20.742,6.966,38.715c-0.087,0.405,0.171,0.804,0.575,0.892  c0.054,0.011,0.106,0.017,0.159,0.017c0.346,0,0.656-0.24,0.732-0.592c3.857-17.895-3.402-36.952-7.499-40.206  c-2.442-1.94-4.936-1.191-7.576-0.397c-1.757,0.528-3.765,1.134-6.066,1.085c-3.424-0.061-4.429-0.393-5.949-0.896  c-1.048-0.347-2.353-0.778-4.779-1.219c-6.23-1.133-13.224,6.981-15.101,12.847c-1.488,4.649-1.829,15.554-1.898,18.756  c-1.48-2.799-3.728-7.139-4.089-9.941c-0.027-0.206-0.04-0.423-0.045-0.647c0.033-0.907,0.33-3.483,2.61-4.018  c0.403-0.094,0.654-0.498,0.56-0.901s-0.499-0.653-0.901-0.559c-0.555,0.13-1.029,0.346-1.441,0.616  c0.612-2.098,1.363-3.896,1.522-4.269c0.143-0.188,1.237-1.51,4.19-2.171c0.404-0.09,0.658-0.492,0.567-0.896  c-0.091-0.405-0.491-0.656-0.896-0.568c-1.733,0.388-2.937,0.993-3.746,1.547c0.22-3.357,1.59-6.603,3.932-9.346  c0.469-0.32,1.744-1.036,3.754-1.036c0.414,0,0.75-0.336,0.75-0.75s-0.336-0.75-0.75-0.75c-0.768,0-1.446,0.091-2.041,0.226  c0.822-1.163,2.028-2.643,3.821-3.76c1.186-0.541,3.962-1.523,6.652-0.396c0.382,0.16,0.821-0.02,0.981-0.402  c0.16-0.382-0.02-0.821-0.401-0.981c-0.488-0.204-0.974-0.346-1.454-0.448c0.65-0.273,1.15-0.526,1.592-0.752  c1.073-0.549,1.722-0.88,3.737-1.001c1.832-0.109,3.55,0.139,5.064,0.357c1.73,0.25,3.366,0.487,4.834,0.143  c1.586-0.371,2.785-0.113,4.177,0.184c0.682,0.146,1.385,0.297,2.188,0.389c2.317,0.266,4.76,1.111,4.784,1.12  c0.07,0.025,0.145,0.039,0.22,0.042c0.541,0.02,1.227,0.235,1.935,0.527c-0.446,0.029-0.726,0.081-0.77,0.09  c-0.405,0.084-0.666,0.481-0.582,0.887s0.483,0.667,0.887,0.582c0.038-0.008,4.045-0.786,8.131,2.757  c2.26,1.961,3.318,3.054,3.899,3.8c-0.81-0.22-1.802-0.369-3.026-0.383c-0.423-0.005-0.755,0.327-0.759,0.742  c-0.005,0.414,0.327,0.753,0.741,0.758c2.679,0.03,3.992,0.782,4.586,1.305c0.071,0.092,0.131,0.171,0.209,0.272  c0.913,1.167,2.213,2.841,2.558,4.728c-1.006-0.992-2.495-2.099-4.56-2.769c-0.397-0.128-0.817,0.088-0.944,0.482  c-0.128,0.394,0.087,0.817,0.481,0.945c3.361,1.091,5.001,3.557,5.309,4.064c0.285,1.225,0.851,2.385,1.41,3.517  c0.241,0.488,0.475,0.967,0.678,1.434c-1.209-1.387-2.548-2.022-2.577-2.036c-0.381-0.171-0.819-0.002-0.99,0.374  c-0.171,0.376-0.004,0.82,0.371,0.993c0.174,0.08,3.615,1.73,3.589,5.816C81.683,39.444,81.348,41.023,79.908,43.081z"></path><path fill="#000000" d="M60.807,48.818c-0.031-0.109-0.822-2.666-4.679-3.088c-3.778-0.412-6.065,2.562-6.16,2.688  c-0.249,0.332-0.182,0.802,0.149,1.05c0.331,0.248,0.803,0.18,1.05-0.15c0.005-0.006,0.127-0.166,0.354-0.395  c0.427,0.457,1.864,1.798,4.073,1.798c2.464,0,3.931-0.916,3.992-0.955c0.045-0.029,0.075-0.071,0.112-0.107  c0.116,0.072,0.249,0.118,0.389,0.118c0.069,0,0.141-0.01,0.211-0.03C60.695,49.632,60.923,49.216,60.807,48.818z M54.149,47.364  c-0.171,0.277-0.274,0.6-0.274,0.949c0,0.188,0.037,0.366,0.09,0.537c-0.615-0.284-1.047-0.65-1.261-0.86  C53.114,47.738,53.598,47.511,54.149,47.364z M57.355,49.022c0.093-0.218,0.145-0.458,0.145-0.709c0-0.281-0.069-0.543-0.183-0.78  c0.74,0.261,1.23,0.615,1.538,0.942c-0.023,0.011-0.047,0.012-0.069,0.026C58.778,48.505,58.263,48.81,57.355,49.022z"></path><path fill="#000000" d="M40.529,49.03c-0.014-0.025-0.359-0.626-1.013-1.312c-0.935-0.981-2.507-2.151-4.69-2.151  c-3.611,0-5.5,2.253-5.579,2.349c-0.263,0.32-0.216,0.793,0.104,1.056c0.2,0.163,0.456,0.194,0.686,0.126  c0.053,0.111,0.124,0.214,0.231,0.29c1.316,0.938,2.675,1.277,3.924,1.277c1.906,0,3.56-0.79,4.426-1.451  c0.046-0.035,0.074-0.082,0.109-0.125c0.318,0.382,0.493,0.673,0.5,0.685c0.138,0.242,0.391,0.377,0.651,0.377  c0.125,0,0.253-0.032,0.37-0.098C40.609,49.848,40.734,49.39,40.529,49.03z M32.609,48.912c-0.467-0.155-0.944-0.382-1.424-0.718  c0.382-0.272,0.903-0.566,1.567-0.789c-0.156,0.268-0.252,0.575-0.252,0.908C32.5,48.524,32.543,48.723,32.609,48.912z   M35.704,47.164c0.77,0.158,1.421,0.502,1.947,0.897c-0.187,0.132-0.781,0.523-1.622,0.805c0.057-0.176,0.095-0.36,0.095-0.554  C36.125,47.874,35.963,47.478,35.704,47.164z"></path></svg>